<svg width="300" height="400" xmlns="http://www.w3.org/2000/svg">
  <!-- Background with mountain silhouette -->
  <rect width="100%" height="100%" fill="#ffffff"/>
  <path d="M0,400 L300,400 L300,150 L250,200 L220,180 L180,220 L150,170 L100,210 L70,160 L30,190 L0,150 Z" fill="#f1f5f9" opacity="0.6"/>
  
  <!-- Header -->
  <rect x="0" y="0" width="100%" height="20%" fill="#166534"/>
  <rect x="5%" y="5%" width="50%" height="10%" rx="4" fill="#22c55e"/>
  <rect x="70%" y="7%" width="25%" height="6%" rx="4" fill="#bbf7d0"/>
  
  <!-- Main content sections -->
  <rect x="5%" y="25%" width="90%" height="7%" rx="4" fill="#22c55e"/>
  <rect x="5%" y="34%" width="90%" height="15%" rx="4" fill="#f0fdf4"/>
  
  <rect x="5%" y="52%" width="90%" height="7%" rx="4" fill="#22c55e"/>
  <rect x="5%" y="61%" width="90%" height="15%" rx="4" fill="#f0fdf4"/>
  
  <!-- Skills and Interests -->
  <rect x="5%" y="79%" width="43%" height="7%" rx="4" fill="#22c55e"/>
  <rect x="52%" y="79%" width="43%" height="7%" rx="4" fill="#22c55e"/>
  
  <rect x="5%" y="88%" width="43%" height="8%" rx="4" fill="#f0fdf4"/>
  <rect x="52%" y="88%" width="43%" height="8%" rx="4" fill="#f0fdf4"/>
  
  <!-- Text -->
  <text x="50%" y="50%" font-family="Arial" font-size="16" fill="#212529" text-anchor="middle" dominant-baseline="middle">Kilimanjaro</text>
  <text x="50%" y="56%" font-family="Arial" font-size="12" fill="#6c757d" text-anchor="middle" dominant-baseline="middle">Impressive professional profile</text>
</svg>