<svg width="300" height="400" xmlns="http://www.w3.org/2000/svg">
  <!-- Background -->
  <rect width="100%" height="100%" fill="#ffffff"/>
  
  <!-- Construction/engineering theme elements -->
  <rect x="0" y="0" width="100%" height="10%" fill="#f97316"/>
  <rect x="0" y="10%" width="100%" height="2%" fill="#fbbf24"/>
  
  <!-- Ruler markings on left -->
  <rect x="0" y="15%" width="5%" height="80%" fill="#f1f5f9"/>
  <rect x="0" y="20%" width="3%" height="1%" fill="#f97316"/>
  <rect x="0" y="30%" width="3%" height="1%" fill="#f97316"/>
  <rect x="0" y="40%" width="3%" height="1%" fill="#f97316"/>
  <rect x="0" y="50%" width="3%" height="1%" fill="#f97316"/>
  <rect x="0" y="60%" width="3%" height="1%" fill="#f97316"/>
  <rect x="0" y="70%" width="3%" height="1%" fill="#f97316"/>
  <rect x="0" y="80%" width="3%" height="1%" fill="#f97316"/>
  <rect x="0" y="90%" width="3%" height="1%" fill="#f97316"/>
  
  <!-- Content headings -->
  <rect x="7%" y="15%" width="30%" height="8%" rx="4" fill="#fdba74"/>
  <rect x="7%" y="26%" width="86%" height="12%" rx="4" fill="#ffedd5"/>
  
  <rect x="7%" y="40%" width="30%" height="8%" rx="4" fill="#fdba74"/>
  <rect x="7%" y="51%" width="86%" height="12%" rx="4" fill="#ffedd5"/>
  
  <rect x="7%" y="65%" width="30%" height="8%" rx="4" fill="#fdba74"/>
  <rect x="7%" y="76%" width="86%" height="19%" rx="4" fill="#ffedd5"/>
  
  <!-- Footer -->
  <rect x="0" y="97%" width="100%" height="3%" fill="#fbbf24"/>
  
  <!-- Text -->
  <text x="50%" y="50%" font-family="Arial" font-size="16" fill="#7c2d12" text-anchor="middle" dominant-baseline="middle">Mjenzi wa Taifa</text>
  <text x="50%" y="56%" font-family="Arial" font-size="12" fill="#9a3412" text-anchor="middle" dominant-baseline="middle">Strong structured layout</text>
</svg>