<svg width="300" height="400" xmlns="http://www.w3.org/2000/svg">
  <!-- Safari sunset background -->
  <rect width="100%" height="100%" fill="#fef3c7"/>
  
  <!-- Sunset gradient -->
  <rect x="0" y="0" width="100%" height="20%" fill="#f97316"/>
  <rect x="0" y="20%" width="100%" height="10%" fill="#fdba74"/>
  
  <!-- Acacia tree silhouette -->
  <path d="M240,90 L255,70 L270,90 L260,90 L280,60 L290,90 L230,90 L245,60 L250,90 Z" fill="#422006"/>
  <rect x="250" y="90" width="10" height="30" fill="#422006"/>
  
  <!-- Content sections with wood texture background -->
  <rect x="5%" y="35%" width="90%" height="15%" rx="4" fill="#854d0e" opacity="0.7"/>
  <rect x="8%" y="38%" width="84%" height="9%" rx="4" fill="#fef3c7"/>
  
  <rect x="5%" y="55%" width="90%" height="15%" rx="4" fill="#854d0e" opacity="0.7"/>
  <rect x="8%" y="58%" width="84%" height="9%" rx="4" fill="#fef3c7"/>
  
  <rect x="5%" y="75%" width="90%" height="15%" rx="4" fill="#854d0e" opacity="0.7"/>
  <rect x="8%" y="78%" width="84%" height="9%" rx="4" fill="#fef3c7"/>
  
  <!-- Contact info with animal print pattern -->
  <rect x="5%" y="95%" width="43%" height="4%" rx="4" fill="#fbbf24"/>
  <rect x="52%" y="95%" width="43%" height="4%" rx="4" fill="#fbbf24"/>
  
  <!-- Text -->
  <text x="50%" y="50%" font-family="Arial" font-size="16" fill="#78350f" text-anchor="middle" dominant-baseline="middle">Safari Original</text>
  <text x="50%" y="56%" font-family="Arial" font-size="12" fill="#92400e" text-anchor="middle" dominant-baseline="middle">Adventure-inspired design</text>
</svg>